<svg width="40" height="40" viewBox="0 0 40 40" fill="none" xmlns="http://www.w3.org/2000/svg">
<path d="M38.5 28.0833H32.25C31.1449 28.0833 30.0851 28.5223 29.3037 29.3037C28.5223 30.0851 28.0833 31.1449 28.0833 32.25V38.5M38.5 38.5V38.5208M19.75 9.33333V15.5833C19.75 16.6884 19.311 17.7482 18.5296 18.5296C17.7482 19.311 16.6884 19.75 15.5833 19.75H9.33333M1 19.75H1.02083M19.75 1H19.7708M19.75 28.0833V28.1042M28.0833 19.75H30.1667M38.5 19.75V19.7708M19.75 38.5V36.4167M3.08333 1H9.33333C10.4839 1 11.4167 1.93274 11.4167 3.08333V9.33333C11.4167 10.4839 10.4839 11.4167 9.33333 11.4167H3.08333C1.93274 11.4167 1 10.4839 1 9.33333V3.08333C1 1.93274 1.93274 1 3.08333 1ZM30.1667 1H36.4167C37.5673 1 38.5 1.93274 38.5 3.08333V9.33333C38.5 10.4839 37.5673 11.4167 36.4167 11.4167H30.1667C29.0161 11.4167 28.0833 10.4839 28.0833 9.33333V3.08333C28.0833 1.93274 29.0161 1 30.1667 1ZM3.08333 28.0833H9.33333C10.4839 28.0833 11.4167 29.0161 11.4167 30.1667V36.4167C11.4167 37.5673 10.4839 38.5 9.33333 38.5H3.08333C1.93274 38.5 1 37.5673 1 36.4167V30.1667C1 29.0161 1.93274 28.0833 3.08333 28.0833Z" stroke="black" stroke-width="2" stroke-linecap="round" stroke-linejoin="round"/>
</svg>
