<svg width="44" height="35" viewBox="0 0 44 35" fill="none" xmlns="http://www.w3.org/2000/svg">
<path d="M42.6642 12.4592V26.2091M9.33088 18.1883V26.2091C9.33088 28.0325 10.6478 29.7812 12.992 31.0705C15.3362 32.3598 18.5157 33.0841 21.8309 33.0841C25.1461 33.0841 28.3255 32.3598 30.6697 31.0705C33.0139 29.7812 34.3309 28.0325 34.3309 26.2091V18.1883M41.4559 14.5721C41.8288 14.3911 42.1453 14.0937 42.3662 13.7168C42.587 13.3399 42.7024 12.9 42.6982 12.4517C42.694 12.0033 42.5703 11.5661 42.3424 11.1943C42.1146 10.8225 41.7926 10.5324 41.4163 10.36L23.56 1.41332C23.0172 1.14095 22.4275 1 21.8309 1C21.2342 1 20.6445 1.14095 20.1017 1.41332L2.24755 10.3508C1.87664 10.5295 1.56112 10.8232 1.33956 11.196C1.118 11.5688 1 12.0046 1 12.45C1 12.8954 1.118 13.3311 1.33956 13.7039C1.56112 14.0768 1.87664 14.3705 2.24755 14.5492L20.1017 23.505C20.6445 23.7773 21.2342 23.9183 21.8309 23.9183C22.4275 23.9183 23.0172 23.7773 23.56 23.505L41.4559 14.5721Z" stroke="black" stroke-width="2" stroke-linecap="round" stroke-linejoin="round"/>
</svg>
