<svg width="36" height="44" viewBox="0 0 36 44" fill="none" xmlns="http://www.w3.org/2000/svg">
<path d="M13.5 1V17.6667L19.75 11.4167L26 17.6667V1M1 37.4583V6.20833C1 4.827 1.54873 3.50224 2.52549 2.52549C3.50224 1.54873 4.827 1 6.20833 1H32.25C32.8025 1 33.3324 1.21949 33.7231 1.61019C34.1138 2.00089 34.3333 2.5308 34.3333 3.08333V40.5833C34.3333 41.1359 34.1138 41.6658 33.7231 42.0565C33.3324 42.4472 32.8025 42.6667 32.25 42.6667H6.20833C4.827 42.6667 3.50224 42.1179 2.52549 41.1412C1.54873 40.1644 1 38.8397 1 37.4583ZM1 37.4583C1 36.077 1.54873 34.7522 2.52549 33.7755C3.50224 32.7987 4.827 32.25 6.20833 32.25H34.3333" stroke="black" stroke-width="2" stroke-linecap="round" stroke-linejoin="round"/>
</svg>
