<svg width="40" height="42" viewBox="0 0 40 42" fill="none" xmlns="http://www.w3.org/2000/svg">
<path d="M26 40.5843V23.9177C26 23.3651 25.7805 22.8352 25.3898 22.4445C24.9991 22.0538 24.4692 21.8343 23.9167 21.8343H15.5833C15.0308 21.8343 14.5009 22.0538 14.1102 22.4445C13.7195 22.8352 13.5 23.3651 13.5 23.9177V40.5843M1 17.6677C0.999855 17.0616 1.13195 16.4627 1.38706 15.9129C1.64217 15.3631 2.01416 14.8756 2.47708 14.4843L17.0604 1.98433C17.8125 1.34873 18.7653 1 19.75 1C20.7347 1 21.6875 1.34873 22.4396 1.98433L37.0229 14.4843C37.4858 14.8756 37.8578 15.3631 38.1129 15.9129C38.3681 16.4627 38.5001 17.0616 38.5 17.6677V36.4177C38.5 37.5227 38.061 38.5825 37.2796 39.3639C36.4982 40.1453 35.4384 40.5843 34.3333 40.5843H5.16667C4.0616 40.5843 3.00179 40.1453 2.22039 39.3639C1.43899 38.5825 1 37.5227 1 36.4177V17.6677Z" stroke="black" stroke-width="2" stroke-linecap="round" stroke-linejoin="round"/>
</svg>
