<svg width="36" height="26" viewBox="0 0 36 26" fill="none" xmlns="http://www.w3.org/2000/svg">
<path d="M19.3333 1V4.33333M19.3333 21V24.3333M19.3333 11V14.3333M1 7.66667C2.32608 7.66667 3.59785 8.19345 4.53553 9.13113C5.47322 10.0688 6 11.3406 6 12.6667C6 13.9927 5.47322 15.2645 4.53553 16.2022C3.59785 17.1399 2.32608 17.6667 1 17.6667V21C1 21.8841 1.35119 22.7319 1.97631 23.357C2.60143 23.9821 3.44928 24.3333 4.33333 24.3333H31C31.8841 24.3333 32.7319 23.9821 33.357 23.357C33.9821 22.7319 34.3333 21.8841 34.3333 21V17.6667C33.0073 17.6667 31.7355 17.1399 30.7978 16.2022C29.8601 15.2645 29.3333 13.9927 29.3333 12.6667C29.3333 11.3406 29.8601 10.0688 30.7978 9.13113C31.7355 8.19345 33.0073 7.66667 34.3333 7.66667V4.33333C34.3333 3.44928 33.9821 2.60143 33.357 1.97631C32.7319 1.35119 31.8841 1 31 1H4.33333C3.44928 1 2.60143 1.35119 1.97631 1.97631C1.35119 2.60143 1 3.44928 1 4.33333V7.66667Z" stroke="black" stroke-width="2" stroke-linecap="round" stroke-linejoin="round"/>
</svg>
