<svg width="25" height="27" viewBox="0 0 25 27" fill="none" xmlns="http://www.w3.org/2000/svg">
<path d="M7.9875 15.3875L16.525 20.3625M16.5125 6.6375L7.9875 11.6125M23.5 4.75C23.5 6.82107 21.8211 8.5 19.75 8.5C17.6789 8.5 16 6.82107 16 4.75C16 2.67893 17.6789 1 19.75 1C21.8211 1 23.5 2.67893 23.5 4.75ZM8.5 13.5C8.5 15.5711 6.82107 17.25 4.75 17.25C2.67893 17.25 1 15.5711 1 13.5C1 11.4289 2.67893 9.75 4.75 9.75C6.82107 9.75 8.5 11.4289 8.5 13.5ZM23.5 22.25C23.5 24.3211 21.8211 26 19.75 26C17.6789 26 16 24.3211 16 22.25C16 20.1789 17.6789 18.5 19.75 18.5C21.8211 18.5 23.5 20.1789 23.5 22.25Z" stroke="black" stroke-width="2" stroke-linecap="round" stroke-linejoin="round"/>
</svg>
