<svg width="32" height="32" viewBox="0 0 32 32" fill="none" xmlns="http://www.w3.org/2000/svg">
<path d="M7.66667 1V31M2.66667 1H12.6667C13.5871 1 14.3333 1.74619 14.3333 2.66667V29.3333C14.3333 30.2538 13.5871 31 12.6667 31H2.66667C1.74619 31 1 30.2538 1 29.3333V2.66667C1 1.74619 1.74619 1 2.66667 1ZM30 27.5C30.3333 28.3333 29.8333 29.3333 29 29.6667L25.8333 30.8333C25 31.1667 24 30.6667 23.6667 29.8333L14.5 4.5C14.1667 3.66667 14.6667 2.66667 15.5 2.33333L18.6667 1.16667C19.5 0.833333 20.5 1.33333 20.8333 2.16667L30 27.5Z" stroke="black" stroke-width="2" stroke-linecap="round" stroke-linejoin="round"/>
</svg>
